<svg width="1080" height="1080" viewBox="0 0 1080 1080" fill="none" xmlns="http://www.w3.org/2000/svg">
<g clip-path="url(#clip0_3_7426)">
<path d="M1080 0H0V1080H1080V0Z" fill="#F4F4F4"/>
<path d="M946.782 39.999H133.164C59.616 39.999 0 73.117 0 114.01V731.14H1080V114.01C1080 73.117 1020.33 39.999 946.782 39.999Z" fill="url(#paint0_linear_3_7426)"/>
<path d="M0 -0.000976562V592.359C10.368 567.999 238.983 365.612 296.767 343.494C354.551 321.376 346.867 315.153 425.292 295.45C514.377 273.064 603.117 256.375 702 258.599C831.641 258.837 952.472 278.31 1064.49 317.018L1080 324.157V-0.000976562H0Z" fill="url(#paint1_linear_3_7426)"/>
<path d="M747.932 566.075L681.3 634.106L823 633.924L756.2 566.067C755.661 565.517 755.017 565.08 754.307 564.782C753.597 564.484 752.834 564.331 752.064 564.332C751.294 564.333 750.532 564.487 749.822 564.787C749.113 565.086 748.47 565.524 747.932 566.075Z" fill="#4497B7"/>
<path d="M821.783 632.688C820.534 631.559 818.911 630.932 817.227 630.93L687.258 631.1C685.463 631.103 683.743 631.819 682.474 633.089C681.206 634.359 680.494 636.081 680.493 637.876L680.587 709.967C680.587 710.251 680.643 710.532 680.753 710.794C680.862 711.056 681.021 711.294 681.222 711.494C681.423 711.694 681.662 711.853 681.924 711.961C682.187 712.069 682.468 712.124 682.752 712.123L821.952 711.942C822.524 711.941 823.072 711.714 823.476 711.309C823.88 710.905 824.106 710.357 824.106 709.785L824.012 637.697C824.009 636.753 823.809 635.82 823.425 634.958C823.042 634.095 822.482 633.322 821.783 632.688Z" fill="#5CCFFE"/>
<path d="M687.258 631.099C685.576 631.107 683.956 631.736 682.708 632.865L737.625 676.53C741.804 679.837 746.98 681.634 752.309 681.627C757.639 681.62 762.81 679.81 766.98 676.491L821.78 632.691C820.533 631.565 818.913 630.94 817.233 630.939L687.258 631.099Z" fill="#4497B7"/>
<path d="M803.033 587.199L701.341 587.33C700.803 587.331 700.271 587.437 699.774 587.643C699.277 587.85 698.826 588.152 698.447 588.533C698.067 588.913 697.766 589.365 697.561 589.862C697.355 590.359 697.25 590.892 697.251 591.43L697.318 644.498L737.625 676.535C741.804 679.842 746.98 681.639 752.309 681.632C757.639 681.625 762.81 679.815 766.98 676.496L807.208 644.358L807.132 591.289C807.129 590.204 806.696 589.163 805.928 588.397C805.16 587.63 804.119 587.199 803.033 587.199Z" fill="white"/>
<path d="M326.267 526.249C358.771 520.91 380.793 490.232 375.454 457.728C370.115 425.223 339.437 403.202 306.932 408.541C274.428 413.88 252.406 444.558 257.745 477.062C263.084 509.567 293.763 531.588 326.267 526.249Z" fill="#2B1BED"/>
<path d="M317.836 449.919C317.536 437.94 282.574 430.97 282.721 457.657C282.835 478.557 316.6 495.508 316.6 495.508C316.6 495.508 350.446 478.563 350.478 457.657C350.514 432.655 317.531 437.94 317.836 449.919Z" fill="white"/>
<path d="M755.813 111.918C746.111 111.918 736.503 113.829 727.54 117.541C718.576 121.254 710.431 126.696 703.571 133.557C696.71 140.417 691.268 148.562 687.555 157.526C683.843 166.489 681.932 176.097 681.932 185.799C681.932 195.501 683.843 205.108 687.556 214.072C691.269 223.035 696.711 231.179 703.571 238.04C710.432 244.9 718.577 250.342 727.54 254.054C736.504 257.767 746.111 259.677 755.813 259.677C765.515 259.677 775.121 257.766 784.085 254.053C793.048 250.341 801.192 244.899 808.052 238.039C814.912 231.178 820.354 223.034 824.067 214.071C827.779 205.107 829.69 195.501 829.69 185.799C829.69 176.097 827.78 166.49 824.067 157.526C820.355 148.563 814.913 140.418 808.053 133.558C801.193 126.697 793.049 121.255 784.085 117.542C775.122 113.829 765.515 111.918 755.813 111.918Z" fill="#F5C825"/>
<path d="M415.755 148.261H664.249C676.069 148.261 687.405 152.956 695.763 161.314C704.121 169.672 708.816 181.008 708.816 192.828V805.928C708.816 817.748 704.121 829.084 695.763 837.442C687.405 845.799 676.069 850.495 664.249 850.495H415.753C409.9 850.495 404.104 849.342 398.697 847.102C393.289 844.862 388.376 841.579 384.238 837.44C380.099 833.301 376.816 828.387 374.577 822.98C372.338 817.572 371.185 811.776 371.186 805.923V192.83C371.186 181.01 375.882 169.673 384.24 161.315C392.598 152.957 403.935 148.261 415.755 148.261V148.261Z" fill="#181F79"/>
<path d="M685.661 182.181H394.339C391.701 182.148 389.156 183.154 387.254 184.982C385.351 186.81 384.245 189.314 384.173 191.951C384.173 192.001 384.173 192.051 384.173 192.104V804.699C384.173 808.744 384.97 812.75 386.518 816.487C388.066 820.224 390.336 823.62 393.196 826.48C396.057 829.34 399.453 831.609 403.19 833.156C406.928 834.704 410.934 835.5 414.979 835.499H663.77C672.265 835.474 680.404 832.089 686.411 826.082C692.418 820.076 695.804 811.937 695.83 803.442V192.099C695.83 192.066 695.83 192.031 695.83 191.999C695.768 189.354 694.665 186.84 692.762 185.002C690.858 183.164 688.307 182.15 685.661 182.181Z" fill="white"/>
<path d="M683.83 341.029H396.173V623.832H683.83V341.029Z" fill="#5342F2"/>
<path d="M683.83 712.135H396.173V734.541H683.83V712.135Z" fill="#FE8046"/>
<path d="M708.815 301.633V390.675C710.566 390.673 712.245 389.976 713.484 388.738C714.722 387.499 715.419 385.82 715.421 384.069V308.236C715.418 306.485 714.721 304.807 713.483 303.569C712.245 302.331 710.566 301.635 708.815 301.633Z" fill="#181F79"/>
<path d="M364.579 426.399V502.229C364.582 503.98 365.279 505.657 366.518 506.895C367.756 508.132 369.434 508.827 371.185 508.829V419.79C369.433 419.792 367.754 420.489 366.515 421.728C365.277 422.967 364.58 424.647 364.579 426.399Z" fill="#181F79"/>
<path d="M364.579 312.555V388.387C364.581 390.138 365.277 391.818 366.516 393.056C367.754 394.295 369.434 394.991 371.185 394.993V305.951C369.434 305.953 367.755 306.649 366.517 307.887C365.278 309.125 364.581 310.804 364.579 312.555Z" fill="#181F79"/>
<path d="M364.579 236.682V253.724C364.582 255.475 365.278 257.154 366.517 258.392C367.755 259.631 369.434 260.327 371.185 260.33V230.078C369.434 230.08 367.755 230.776 366.517 232.014C365.278 233.252 364.581 234.931 364.579 236.682Z" fill="#181F79"/>
<path d="M675.381 199.328H672.8V205.208H675.381V199.328Z" fill="#5342F2"/>
<path d="M678.706 199.328H676.122V205.208H678.706V199.328Z" fill="#5342F2"/>
<path d="M682.028 199.328H679.447V205.208H682.028V199.328Z" fill="#5342F2"/>
<path d="M685.353 199.328H682.772V205.208H685.353V199.328Z" fill="#5342F2"/>
<path d="M687.387 200.483H686.095V204.054H687.387V200.483Z" fill="#5342F2"/>
<path d="M657.059 204.356C656.73 204.356 656.413 204.487 656.18 204.72C655.947 204.953 655.816 205.268 655.816 205.598C655.816 205.927 655.947 206.243 656.18 206.476C656.413 206.709 656.73 206.84 657.059 206.84C657.388 206.839 657.703 206.709 657.936 206.476C658.169 206.243 658.299 205.928 658.3 205.599C658.3 205.27 658.169 204.954 657.937 204.721C657.704 204.488 657.388 204.356 657.059 204.356Z" fill="#5342F2"/>
<path d="M657.059 200.957C655.903 200.956 654.775 201.312 653.83 201.977C653.73 202.049 653.648 202.141 653.588 202.248C653.528 202.355 653.491 202.473 653.482 202.595C653.472 202.717 653.49 202.84 653.533 202.955C653.575 203.07 653.643 203.174 653.73 203.26C653.868 203.4 654.051 203.486 654.247 203.505C654.442 203.523 654.638 203.472 654.8 203.36C655.461 202.895 656.25 202.646 657.059 202.646C657.868 202.646 658.658 202.895 659.32 203.36C659.482 203.472 659.678 203.523 659.873 203.504C660.069 203.486 660.252 203.4 660.39 203.26C660.477 203.174 660.544 203.07 660.587 202.955C660.629 202.84 660.646 202.717 660.637 202.595C660.627 202.473 660.591 202.355 660.532 202.248C660.472 202.141 660.389 202.049 660.29 201.977C659.344 201.312 658.215 200.956 657.059 200.957Z" fill="#5342F2"/>
<path d="M657.059 197.717C655.032 197.715 653.067 198.41 651.492 199.686C651.398 199.76 651.322 199.854 651.267 199.96C651.211 200.066 651.179 200.182 651.172 200.302C651.165 200.421 651.183 200.54 651.225 200.652C651.267 200.764 651.332 200.866 651.416 200.951C651.567 201.099 651.768 201.186 651.98 201.194C652.192 201.202 652.399 201.131 652.561 200.995C653.835 199.966 655.424 199.407 657.061 199.41C658.698 199.408 660.287 199.967 661.561 200.995C661.723 201.131 661.929 201.202 662.141 201.194C662.352 201.186 662.552 201.099 662.703 200.951C662.787 200.866 662.852 200.764 662.894 200.653C662.937 200.541 662.955 200.422 662.948 200.302C662.941 200.183 662.909 200.067 662.854 199.96C662.8 199.854 662.723 199.761 662.63 199.686C661.054 198.41 659.087 197.715 657.059 197.717Z" fill="#5342F2"/>
<path d="M396.9 198.256C395.509 198.256 394.518 199.519 394.518 201.813C394.542 204.08 395.447 205.331 396.78 205.331C398.301 205.331 399.162 204.045 399.162 201.719C399.161 199.539 398.338 198.256 396.9 198.256ZM396.836 204.613C395.995 204.613 395.447 203.606 395.447 201.824C395.447 199.961 396.036 198.971 396.847 198.971C397.804 198.971 398.235 200.078 398.235 201.76C398.235 203.512 397.781 204.613 396.835 204.613H396.836Z" fill="#5342F2"/>
<path d="M403.183 201.572V201.543C403.509 201.419 403.79 201.201 403.991 200.915C404.191 200.63 404.302 200.292 404.308 199.943C404.299 199.698 404.239 199.457 404.132 199.236C404.025 199.016 403.873 198.82 403.686 198.661C403.498 198.502 403.28 198.384 403.045 198.314C402.81 198.244 402.562 198.224 402.319 198.255C402.059 198.227 401.796 198.253 401.546 198.331C401.296 198.409 401.064 198.537 400.866 198.708C400.668 198.879 400.506 199.088 400.392 199.324C400.277 199.559 400.212 199.816 400.201 200.077C400.21 200.412 400.318 200.737 400.511 201.01C400.705 201.283 400.975 201.493 401.288 201.612L401.3 201.645C400.91 201.769 400.569 202.013 400.325 202.341C400.081 202.67 399.946 203.067 399.94 203.476C399.94 204.476 400.804 205.33 402.234 205.33C402.519 205.361 402.807 205.333 403.081 205.248C403.355 205.163 403.609 205.023 403.827 204.837C404.045 204.651 404.222 204.422 404.349 204.165C404.476 203.908 404.548 203.627 404.563 203.341C404.551 202.938 404.41 202.549 404.162 202.231C403.914 201.913 403.571 201.682 403.183 201.572ZM401.077 200.014C401.075 199.862 401.105 199.71 401.165 199.57C401.225 199.429 401.313 199.303 401.425 199.2C401.537 199.096 401.67 199.017 401.814 198.968C401.959 198.918 402.112 198.9 402.264 198.914C402.416 198.9 402.57 198.919 402.714 198.97C402.859 199.02 402.99 199.102 403.1 199.208C403.21 199.314 403.296 199.443 403.352 199.585C403.408 199.728 403.433 199.88 403.424 200.033C403.409 200.325 403.299 200.604 403.111 200.828C402.924 201.052 402.669 201.21 402.384 201.276C401.59 201.069 401.077 200.699 401.077 200.014ZM402.258 204.658C402.08 204.673 401.901 204.65 401.733 204.591C401.565 204.532 401.411 204.438 401.281 204.315C401.152 204.192 401.05 204.044 400.982 203.879C400.914 203.714 400.882 203.536 400.887 203.358C400.898 203.017 401.027 202.69 401.252 202.433C401.477 202.175 401.783 202.004 402.12 201.946C403.046 202.209 403.626 202.608 403.626 203.44C403.624 203.613 403.586 203.783 403.515 203.939C403.443 204.096 403.34 204.237 403.211 204.351C403.082 204.466 402.931 204.552 402.767 204.605C402.603 204.658 402.429 204.676 402.258 204.658Z" fill="#5342F2"/>
<path d="M406.142 204.004C406.056 204.003 405.971 204.019 405.891 204.052C405.812 204.086 405.741 204.135 405.681 204.197C405.622 204.259 405.576 204.333 405.547 204.414C405.517 204.494 405.505 204.58 405.51 204.666C405.504 204.751 405.516 204.837 405.544 204.917C405.573 204.998 405.618 205.071 405.676 205.134C405.734 205.196 405.805 205.246 405.883 205.28C405.961 205.314 406.046 205.331 406.131 205.331C406.217 205.333 406.303 205.317 406.383 205.284C406.463 205.251 406.535 205.202 406.595 205.139C406.654 205.076 406.7 205.002 406.729 204.92C406.759 204.839 406.77 204.752 406.764 204.666C406.77 204.581 406.759 204.496 406.73 204.415C406.702 204.335 406.657 204.261 406.598 204.199C406.54 204.136 406.469 204.087 406.391 204.054C406.312 204.02 406.227 204.003 406.142 204.004Z" fill="#5342F2"/>
<path d="M409.9 198.256C408.509 198.256 407.518 199.519 407.518 201.813C407.542 204.08 408.447 205.331 409.783 205.331C411.3 205.331 412.162 204.045 412.162 201.719C412.166 199.539 411.346 198.256 409.9 198.256ZM409.836 204.613C408.992 204.613 408.447 203.606 408.447 201.824C408.447 199.961 409.036 198.971 409.847 198.971C410.804 198.971 411.235 200.078 411.235 201.76C411.24 203.512 410.786 204.613 409.84 204.613H409.836Z" fill="#5342F2"/>
<path d="M415.315 198.256C413.924 198.256 412.933 199.519 412.933 201.813C412.957 204.08 413.862 205.331 415.198 205.331C416.713 205.331 417.577 204.045 417.577 201.719C417.577 199.539 416.754 198.256 415.315 198.256ZM415.251 204.613C414.41 204.613 413.862 203.606 413.862 201.824C413.862 199.961 414.451 198.971 415.262 198.971C416.22 198.971 416.65 200.078 416.65 201.76C416.651 203.512 416.2 204.613 415.251 204.613Z" fill="#5342F2"/>
<path opacity="0.4" d="M589.052 812.699H496.506C495.191 812.699 493.931 813.221 493.001 814.151C492.071 815.08 491.549 816.341 491.549 817.656C491.549 818.971 492.071 820.231 493.001 821.161C493.931 822.091 495.191 822.613 496.506 822.613H589.052C590.367 822.613 591.628 822.091 592.557 821.161C593.487 820.231 594.009 818.971 594.009 817.656C594.009 816.341 593.487 815.08 592.557 814.151C591.628 813.221 590.367 812.699 589.052 812.699Z" fill="white"/>
<path d="M577.307 161.399C576.733 161.399 576.164 161.512 575.634 161.731C575.104 161.951 574.622 162.273 574.216 162.679C573.81 163.085 573.488 163.567 573.268 164.097C573.048 164.627 572.935 165.196 572.935 165.77C572.935 166.344 573.048 166.912 573.268 167.442C573.488 167.972 573.81 168.454 574.216 168.86C574.622 169.265 575.104 169.587 575.634 169.806C576.165 170.026 576.733 170.138 577.307 170.138C578.465 170.138 579.576 169.678 580.396 168.859C581.215 168.039 581.675 166.928 581.675 165.77C581.675 164.611 581.215 163.5 580.396 162.68C579.577 161.86 578.466 161.399 577.307 161.399Z" fill="white"/>
<path d="M561.2 163.246H522.24C521.878 163.208 521.512 163.242 521.163 163.348C520.815 163.454 520.491 163.628 520.211 163.861C519.932 164.095 519.701 164.382 519.535 164.705C519.368 165.029 519.268 165.383 519.24 165.746C519.267 166.109 519.367 166.463 519.534 166.787C519.701 167.111 519.931 167.398 520.211 167.631C520.491 167.864 520.815 168.039 521.163 168.144C521.512 168.25 521.878 168.284 522.24 168.246H561.2C562.856 168.246 564.2 167.221 564.2 165.746C564.173 165.383 564.073 165.029 563.906 164.705C563.739 164.381 563.509 164.094 563.229 163.861C562.949 163.628 562.625 163.453 562.277 163.348C561.928 163.242 561.562 163.207 561.2 163.246Z" fill="white"/>
<path d="M408.2 645.139C408.663 644.726 409.034 644.219 409.287 643.653C409.541 643.086 409.671 642.472 409.671 641.852V639.672C409.687 638.5 409.25 637.367 408.451 636.51C407.652 635.653 406.552 635.138 405.382 635.072C404.79 635.054 404.2 635.155 403.648 635.369C403.096 635.584 402.593 635.907 402.168 636.319C401.743 636.732 401.405 637.225 401.175 637.771C400.944 638.316 400.826 638.903 400.826 639.495V641.86C400.827 642.481 400.959 643.094 401.213 643.661C401.467 644.227 401.839 644.734 402.302 645.147C400.828 645.639 399.5 646.491 398.439 647.626C397.378 648.761 396.617 650.143 396.226 651.647C396.158 651.928 396.156 652.221 396.219 652.503C396.281 652.786 396.408 653.05 396.588 653.276C396.768 653.502 396.998 653.684 397.259 653.808C397.521 653.932 397.807 653.994 398.096 653.991L412.419 653.985C412.708 653.988 412.994 653.925 413.255 653.8C413.516 653.676 413.746 653.494 413.926 653.267C414.106 653.041 414.231 652.777 414.294 652.494C414.356 652.212 414.353 651.919 414.285 651.638C413.892 650.134 413.129 648.752 412.067 647.617C411.004 646.482 409.675 645.63 408.2 645.139Z" fill="#CECDD3"/>
<path d="M446.039 635.032L427.761 635.043C427.405 635.043 427.053 635.113 426.724 635.249C426.396 635.386 426.097 635.585 425.845 635.837C425.594 636.089 425.394 636.387 425.259 636.716C425.123 637.045 425.053 637.397 425.053 637.753L425.059 646.733C425.059 647.089 425.129 647.441 425.265 647.77C425.401 648.099 425.6 648.398 425.852 648.65C426.104 648.902 426.403 649.101 426.732 649.237C427.061 649.373 427.413 649.443 427.769 649.443H429.556C429.556 649.443 431.921 652.507 432.779 653.465C432.931 653.629 433.114 653.759 433.319 653.849C433.523 653.938 433.744 653.984 433.967 653.984C434.19 653.984 434.411 653.938 434.615 653.849C434.82 653.759 435.003 653.629 435.155 653.465C436.014 652.507 438.375 649.443 438.375 649.443H446.051C446.768 649.44 447.455 649.152 447.961 648.644C448.467 648.135 448.751 647.447 448.751 646.73V637.747C448.752 637.391 448.682 637.038 448.546 636.708C448.41 636.379 448.21 636.079 447.958 635.827C447.706 635.575 447.407 635.375 447.078 635.238C446.748 635.102 446.395 635.032 446.039 635.032Z" fill="#CECDD3"/>
<path d="M444.313 637.815L429.492 637.823C429.28 637.823 429.076 637.907 428.926 638.057C428.776 638.207 428.692 638.411 428.692 638.623C428.692 638.835 428.776 639.039 428.926 639.189C429.076 639.339 429.28 639.423 429.492 639.423L444.31 639.411C444.522 639.411 444.726 639.327 444.876 639.177C445.026 639.027 445.11 638.823 445.11 638.611C445.11 638.399 445.026 638.195 444.876 638.045C444.726 637.895 444.522 637.811 444.31 637.811L444.313 637.815Z" fill="white"/>
<path d="M444.316 641.699L429.495 641.708C429.283 641.708 429.079 641.792 428.929 641.942C428.779 642.092 428.695 642.296 428.695 642.508C428.695 642.72 428.779 642.924 428.929 643.074C429.079 643.224 429.283 643.308 429.495 643.308L444.316 643.302C444.528 643.302 444.732 643.218 444.882 643.068C445.032 642.918 445.116 642.714 445.116 642.502C445.116 642.29 445.032 642.086 444.882 641.936C444.732 641.786 444.528 641.702 444.316 641.702V641.699Z" fill="white"/>
<path d="M436.177 645.599L429.498 645.605C429.393 645.605 429.289 645.626 429.192 645.666C429.095 645.706 429.007 645.765 428.932 645.839C428.858 645.913 428.799 646.002 428.759 646.099C428.719 646.196 428.698 646.3 428.698 646.405C428.698 646.51 428.719 646.614 428.759 646.711C428.799 646.808 428.858 646.896 428.932 646.971C429.007 647.045 429.095 647.104 429.192 647.144C429.289 647.184 429.393 647.205 429.498 647.205H436.18C436.285 647.205 436.389 647.184 436.486 647.144C436.583 647.104 436.671 647.045 436.746 646.971C436.82 646.896 436.879 646.808 436.919 646.711C436.959 646.614 436.98 646.51 436.98 646.405C436.98 646.3 436.959 646.196 436.919 646.099C436.879 646.002 436.82 645.913 436.746 645.839C436.671 645.765 436.583 645.706 436.486 645.666C436.389 645.626 436.285 645.605 436.18 645.605L436.177 645.599Z" fill="white"/>
<path d="M477.463 645.335V643.405C477.462 641.851 476.914 640.346 475.915 639.156C474.916 637.965 473.53 637.164 472 636.892V636.323C472 636.015 471.878 635.72 471.66 635.503C471.443 635.285 471.148 635.163 470.84 635.163C470.532 635.163 470.237 635.285 470.02 635.503C469.802 635.72 469.68 636.015 469.68 636.323V636.895C468.15 637.167 466.764 637.969 465.767 639.16C464.769 640.352 464.222 641.856 464.222 643.41V645.344C463.173 646.762 462.608 648.48 462.613 650.244V651.082C462.613 651.184 462.633 651.284 462.672 651.378C462.711 651.472 462.768 651.558 462.839 651.63C462.911 651.702 462.997 651.759 463.091 651.797C463.185 651.836 463.285 651.856 463.387 651.856H466.662C466.634 651.981 466.644 652.111 466.689 652.23C466.734 652.349 466.814 652.452 466.917 652.527C468.056 653.367 469.433 653.82 470.849 653.82C472.264 653.82 473.641 653.367 474.78 652.527C474.883 652.452 474.962 652.349 475.007 652.229C475.051 652.11 475.06 651.98 475.032 651.856H478.316C478.521 651.855 478.717 651.773 478.861 651.628C479.006 651.483 479.087 651.287 479.087 651.082V650.242C479.089 648.474 478.519 646.753 477.463 645.335Z" fill="#CECDD3"/>
<path d="M481.078 647.418C480.387 647.418 479.711 647.623 479.137 648.006C478.562 648.39 478.114 648.936 477.85 649.574C477.585 650.213 477.516 650.915 477.651 651.593C477.786 652.271 478.119 652.893 478.608 653.382C479.097 653.87 479.719 654.203 480.397 654.337C481.075 654.472 481.777 654.402 482.416 654.137C483.054 653.873 483.599 653.424 483.983 652.849C484.366 652.275 484.571 651.599 484.57 650.908C484.57 650.45 484.479 649.996 484.304 649.572C484.128 649.149 483.871 648.764 483.547 648.44C483.223 648.116 482.838 647.859 482.414 647.683C481.99 647.508 481.536 647.418 481.078 647.418Z" fill="#FE8046"/>
<path d="M671.051 636.399L655.551 643.322C655.289 643.44 655.062 643.622 654.89 643.852C654.717 644.082 654.606 644.351 654.566 644.635C654.526 644.919 654.559 645.209 654.661 645.477C654.764 645.746 654.932 645.984 655.151 646.169L664.4 653.994C664.603 654.165 664.844 654.286 665.102 654.348C665.361 654.409 665.63 654.409 665.888 654.347C666.147 654.286 666.387 654.165 666.59 653.994C666.793 653.823 666.954 653.606 667.058 653.362L673.307 638.611C673.439 638.297 673.473 637.951 673.406 637.617C673.338 637.284 673.173 636.978 672.93 636.74C672.686 636.501 672.378 636.341 672.043 636.281C671.708 636.22 671.362 636.261 671.051 636.399Z" fill="#CECDD3"/>
<path d="M408.2 274.677C408.663 274.263 409.033 273.756 409.287 273.189C409.54 272.622 409.671 272.008 409.671 271.387V269.213C409.688 268.041 409.25 266.908 408.451 266.051C407.652 265.194 406.552 264.678 405.382 264.613C404.79 264.595 404.2 264.696 403.648 264.91C403.095 265.124 402.592 265.447 402.167 265.86C401.742 266.273 401.404 266.766 401.174 267.312C400.943 267.858 400.825 268.445 400.826 269.037V271.398C400.827 272.019 400.958 272.633 401.213 273.199C401.467 273.766 401.838 274.272 402.302 274.685C400.829 275.178 399.502 276.031 398.441 277.166C397.381 278.301 396.619 279.682 396.226 281.185C396.159 281.466 396.157 281.758 396.22 282.04C396.283 282.322 396.409 282.586 396.59 282.812C396.77 283.038 396.999 283.219 397.26 283.343C397.521 283.467 397.807 283.529 398.096 283.526L412.419 283.517C412.708 283.52 412.994 283.457 413.254 283.333C413.515 283.208 413.744 283.026 413.924 282.8C414.104 282.574 414.23 282.31 414.293 282.028C414.355 281.746 414.353 281.454 414.285 281.173C413.891 279.669 413.129 278.288 412.066 277.154C411.003 276.019 409.675 275.168 408.2 274.677Z" fill="#CECDD3"/>
<path d="M446.039 264.567L427.761 264.578C427.042 264.579 426.353 264.865 425.846 265.374C425.338 265.883 425.053 266.572 425.053 267.291L425.059 276.274C425.059 276.992 425.345 277.681 425.853 278.189C426.362 278.696 427.051 278.981 427.769 278.981H429.556C429.556 278.981 431.921 282.039 432.779 283C432.931 283.164 433.114 283.294 433.319 283.384C433.523 283.473 433.744 283.519 433.967 283.519C434.19 283.519 434.411 283.473 434.615 283.384C434.82 283.294 435.003 283.164 435.155 283C436.014 282.039 438.375 278.975 438.375 278.975L446.051 278.969C446.406 278.969 446.758 278.899 447.087 278.762C447.415 278.626 447.713 278.426 447.964 278.175C448.215 277.923 448.413 277.624 448.548 277.295C448.683 276.966 448.752 276.614 448.751 276.259V267.277C448.75 266.558 448.464 265.869 447.956 265.361C447.447 264.852 446.758 264.567 446.039 264.567Z" fill="#CECDD3"/>
<path d="M444.313 267.35L429.492 267.361C429.28 267.361 429.076 267.445 428.926 267.595C428.776 267.745 428.692 267.949 428.692 268.161C428.692 268.373 428.776 268.577 428.926 268.727C429.076 268.877 429.28 268.961 429.492 268.961L444.31 268.955C444.522 268.955 444.726 268.871 444.876 268.721C445.026 268.571 445.11 268.367 445.11 268.155C445.111 268.05 445.091 267.945 445.051 267.848C445.011 267.75 444.953 267.662 444.878 267.587C444.804 267.512 444.716 267.453 444.619 267.412C444.522 267.371 444.418 267.35 444.313 267.35Z" fill="white"/>
<path d="M444.316 271.24L429.495 271.249C429.283 271.249 429.079 271.333 428.929 271.483C428.779 271.633 428.695 271.837 428.695 272.049C428.695 272.261 428.779 272.465 428.929 272.615C429.079 272.765 429.283 272.849 429.495 272.849L444.316 272.84C444.421 272.84 444.525 272.819 444.622 272.779C444.719 272.739 444.807 272.68 444.882 272.606C444.956 272.531 445.015 272.443 445.055 272.346C445.095 272.249 445.116 272.145 445.116 272.04C445.116 271.828 445.032 271.624 444.882 271.474C444.732 271.324 444.528 271.24 444.316 271.24Z" fill="white"/>
<path d="M436.177 275.134H429.498C429.286 275.134 429.082 275.218 428.932 275.368C428.782 275.518 428.698 275.722 428.698 275.934C428.699 276.146 428.784 276.348 428.934 276.498C429.084 276.648 429.286 276.732 429.498 276.734L436.18 276.728C436.285 276.728 436.389 276.707 436.486 276.667C436.583 276.627 436.671 276.568 436.746 276.493C436.82 276.419 436.879 276.331 436.919 276.234C436.959 276.137 436.98 276.033 436.98 275.928C436.978 275.716 436.893 275.514 436.743 275.365C436.592 275.216 436.389 275.133 436.177 275.134Z" fill="white"/>
<path d="M477.463 274.873V272.94C477.461 271.386 476.912 269.882 475.913 268.691C474.913 267.501 473.527 266.701 471.996 266.43V265.861C471.996 265.553 471.873 265.258 471.656 265.041C471.438 264.824 471.144 264.701 470.836 264.701C470.528 264.701 470.234 264.824 470.016 265.041C469.799 265.258 469.676 265.553 469.676 265.861V266.43C468.145 266.703 466.759 267.506 465.762 268.698C464.764 269.891 464.217 271.396 464.218 272.951V274.879C463.17 276.297 462.606 278.015 462.609 279.779V280.619C462.609 280.721 462.629 280.821 462.668 280.915C462.707 281.009 462.764 281.095 462.835 281.167C462.907 281.238 462.993 281.295 463.087 281.334C463.181 281.373 463.281 281.393 463.383 281.393H466.658C466.63 281.518 466.64 281.648 466.685 281.768C466.731 281.888 466.81 281.991 466.913 282.067C468.053 282.905 469.43 283.357 470.845 283.356C472.26 283.356 473.638 282.902 474.776 282.061C474.879 281.986 474.958 281.882 475.003 281.762C475.048 281.642 475.057 281.512 475.028 281.387H478.312C478.517 281.386 478.713 281.305 478.858 281.159C479.002 281.014 479.083 280.818 479.083 280.613V279.776C479.085 278.01 478.517 276.29 477.463 274.873Z" fill="#CECDD3"/>
<path d="M481.078 276.956C480.153 276.959 479.266 277.328 478.612 277.983C477.958 278.638 477.59 279.526 477.589 280.451C477.59 281.376 477.958 282.264 478.613 282.918C479.268 283.572 480.156 283.939 481.081 283.938C482.007 283.938 482.894 283.569 483.549 282.915C484.203 282.26 484.57 281.372 484.57 280.446C484.57 279.988 484.479 279.534 484.304 279.11C484.128 278.687 483.871 278.302 483.547 277.978C483.223 277.654 482.838 277.397 482.414 277.221C481.99 277.046 481.536 276.956 481.078 276.956Z" fill="#FE8046"/>
<path d="M671.051 265.932L655.551 272.858C655.289 272.975 655.061 273.156 654.889 273.386C654.716 273.615 654.605 273.884 654.565 274.168C654.525 274.452 654.558 274.741 654.66 275.009C654.763 275.277 654.932 275.514 655.151 275.699L664.4 283.528C664.603 283.699 664.844 283.82 665.102 283.881C665.361 283.943 665.63 283.943 665.888 283.881C666.147 283.82 666.387 283.698 666.59 283.527C666.793 283.356 666.954 283.139 667.058 282.895L673.307 268.141C673.438 267.827 673.471 267.482 673.404 267.148C673.336 266.815 673.17 266.51 672.927 266.272C672.684 266.035 672.376 265.875 672.041 265.814C671.707 265.754 671.362 265.795 671.051 265.932Z" fill="#CECDD3"/>
<path d="M683.83 211.633H396.173V253.369H683.83V211.633Z" fill="#FE8046"/>
<path d="M460.913 663.133H300.058C293.784 663.133 287.767 665.625 283.331 670.062C278.894 674.498 276.402 680.515 276.402 686.789C276.402 693.063 278.894 699.08 283.331 703.516C287.767 707.953 293.784 710.445 300.058 710.445H426.22L437.651 721.879L449.086 710.445H460.913C467.187 710.445 473.204 707.953 477.64 703.516C482.077 699.08 484.569 693.063 484.569 686.789C484.569 680.515 482.077 674.498 477.64 670.062C473.204 665.625 467.187 663.133 460.913 663.133Z" fill="#F5C825"/>
<path d="M451.934 689.037H346.087C345.735 689.03 345.386 689.094 345.059 689.224C344.732 689.353 344.434 689.547 344.183 689.794C343.932 690.04 343.732 690.334 343.596 690.658C343.46 690.983 343.39 691.331 343.39 691.683C343.39 692.034 343.46 692.383 343.596 692.707C343.732 693.031 343.932 693.325 344.183 693.572C344.434 693.818 344.732 694.012 345.059 694.142C345.386 694.272 345.735 694.335 346.087 694.328H451.934C452.627 694.315 453.286 694.03 453.772 693.535C454.257 693.041 454.529 692.375 454.529 691.683C454.529 690.99 454.257 690.325 453.772 689.83C453.286 689.335 452.627 689.051 451.934 689.037Z" fill="white"/>
<path d="M451.934 674.483H379.163C378.461 674.483 377.788 674.762 377.291 675.258C376.795 675.755 376.516 676.428 376.516 677.13C376.516 677.832 376.795 678.505 377.291 679.002C377.788 679.498 378.461 679.777 379.163 679.777H451.934C452.636 679.777 453.309 679.498 453.806 679.002C454.302 678.505 454.581 677.832 454.581 677.13C454.581 676.428 454.302 675.755 453.806 675.258C453.309 674.762 452.636 674.483 451.934 674.483Z" fill="white"/>
<path d="M809.95 350.424L801.524 358.762L801.603 343.733C801.607 343.01 801.469 342.294 801.196 341.625C800.923 340.956 800.521 340.347 800.013 339.833C799.505 339.319 798.901 338.911 798.235 338.631C797.568 338.351 796.854 338.205 796.131 338.201L754.772 337.982C753.312 337.974 751.908 338.547 750.87 339.573C749.832 340.6 749.244 341.997 749.235 343.457L749.015 384.819C749.009 386.279 749.582 387.682 750.61 388.719C751.637 389.756 753.034 390.343 754.494 390.35L795.852 390.567C796.575 390.571 797.291 390.433 797.96 390.16C798.63 389.887 799.238 389.485 799.752 388.977C800.266 388.469 800.675 387.864 800.955 387.198C801.235 386.532 801.38 385.817 801.384 385.094L801.466 370.068L809.801 378.49C810.258 378.952 810.841 379.268 811.477 379.398C812.114 379.528 812.774 379.467 813.376 379.222C813.977 378.977 814.493 378.559 814.856 378.02C815.22 377.482 815.416 376.849 815.42 376.199L815.54 352.777C815.544 352.128 815.355 351.492 814.998 350.95C814.64 350.408 814.13 349.984 813.531 349.732C812.933 349.48 812.273 349.412 811.636 349.535C810.998 349.658 810.412 349.967 809.95 350.424Z" fill="#5CCFFE"/>
<path d="M770.786 376.457L783.052 364.316L770.912 352.052L770.786 376.457Z" fill="#EB4201"/>
<path d="M746 451.615C739.865 451.615 733.867 453.434 728.766 456.842C723.665 460.251 719.688 465.095 717.341 470.763C714.993 476.432 714.378 482.669 715.575 488.686C716.772 494.703 719.726 500.231 724.064 504.569C728.402 508.907 733.93 511.862 739.947 513.059C745.964 514.256 752.201 513.642 757.87 511.294C763.538 508.946 768.383 504.97 771.791 499.869C775.2 494.768 777.019 488.77 777.019 482.635C777.019 478.561 776.217 474.528 774.658 470.764C773.1 467 770.815 463.581 767.934 460.7C765.054 457.82 761.634 455.535 757.871 453.976C754.107 452.417 750.074 451.615 746 451.615Z" fill="#FE8046"/>
<path d="M746.645 473.547C746.487 467.313 728.306 463.692 728.382 477.57C728.443 488.442 746 497.254 746 497.254C746 497.254 763.6 488.442 763.619 477.57C763.64 464.568 746.487 467.313 746.645 473.547Z" fill="white"/>
<path fill-rule="evenodd" clip-rule="evenodd" d="M533.5 237.731C531.348 237.731 529.216 238.154 527.228 238.978C525.239 239.801 523.433 241.008 521.911 242.53C520.389 244.052 519.181 245.859 518.358 247.847C517.534 249.835 517.11 251.967 517.11 254.119C517.11 256.271 517.533 258.403 518.357 260.391C519.18 262.38 520.388 264.187 521.91 265.709C523.432 267.231 525.239 268.438 527.227 269.262C529.216 270.085 531.348 270.508 533.5 270.508C535.652 270.508 537.784 270.084 539.772 269.261C541.761 268.437 543.567 267.23 545.089 265.708C546.611 264.186 547.818 262.38 548.642 260.391C549.466 258.403 549.889 256.271 549.889 254.119C549.889 249.772 548.162 245.604 545.088 242.531C542.015 239.458 537.846 237.731 533.5 237.731Z" fill="#CECDD3"/>
<path fill-rule="evenodd" clip-rule="evenodd" d="M533.5 237.731C531.68 237.752 529.877 238.078 528.165 238.697C529.051 238.522 529.952 238.432 530.855 238.428C547.692 238.428 547.665 264.555 530.855 264.555C520.041 264.555 516.224 253.803 519.297 246.092C517.883 248.532 517.131 251.299 517.114 254.119C517.114 256.271 517.537 258.402 518.36 260.391C519.184 262.379 520.391 264.186 521.912 265.708C523.434 267.229 525.24 268.437 527.229 269.26C529.217 270.084 531.348 270.508 533.5 270.508C535.652 270.508 537.784 270.084 539.772 269.261C541.761 268.437 543.567 267.23 545.089 265.708C546.611 264.186 547.818 262.38 548.642 260.391C549.466 258.403 549.889 256.271 549.889 254.119C549.889 249.772 548.162 245.604 545.088 242.531C542.015 239.458 537.846 237.731 533.5 237.731Z" fill="#5342F2"/>
<path fill-rule="evenodd" clip-rule="evenodd" d="M525.946 234.391C523.671 235.727 521.682 237.499 520.092 239.604C518.502 241.71 517.342 244.108 516.679 246.662C516.015 249.215 515.862 251.875 516.226 254.488C516.591 257.101 517.467 259.616 518.804 261.891C520.331 264.494 522.426 266.718 524.933 268.398C527.44 270.078 530.294 271.169 533.282 271.591C529.028 269.971 525.454 266.949 523.151 263.022C521.814 260.747 520.938 258.231 520.574 255.617C520.209 253.003 520.364 250.343 521.028 247.789C521.691 245.235 522.852 242.837 524.443 240.732C526.034 238.626 528.024 236.855 530.3 235.519C534.221 233.21 538.814 232.31 543.317 232.967C540.501 231.88 537.476 231.444 534.469 231.691C531.461 231.937 528.547 232.86 525.946 234.391Z" fill="#CECDD3"/>
<path fill-rule="evenodd" clip-rule="evenodd" d="M452.519 409.234C450.756 407.664 448.582 406.615 448.198 403.941C447.381 398.272 443.815 394.988 440.098 391.557C436.679 388.387 437.725 394.613 433.187 391.402C430.504 389.502 423.305 383.07 422.222 383.802C420.022 385.296 422.163 387.312 424.747 389.491C424.361 389.665 424.025 389.935 423.772 390.275C423.519 390.615 423.356 391.013 423.299 391.433C423.242 391.853 423.293 392.281 423.447 392.676C423.601 393.071 423.852 393.42 424.178 393.691C423.84 394.017 423.574 394.409 423.396 394.843C423.218 395.277 423.133 395.744 423.145 396.213C423.158 396.682 423.268 397.143 423.468 397.568C423.669 397.992 423.955 398.37 424.31 398.677C422.5 400.777 423.41 402.767 426.461 404.771C429.707 406.906 434.069 411.301 442.738 417.254C454.091 425.054 455.479 427.707 463.082 434.032C470.553 440.252 482.682 451.326 496.392 451.326C499.929 451.326 504.092 444.509 504.856 439.338C499.343 435.755 495.792 434.759 490.492 431.062C474.82 420.121 460.04 415.941 452.519 409.234Z" fill="#FFA578"/>
<path fill-rule="evenodd" clip-rule="evenodd" d="M487.594 444.88C475.638 439.993 466.652 431.11 456.434 423.444C447.234 416.544 437.115 406.644 431.168 396.739C430.444 395.632 429.991 394.371 429.846 393.057C429.7 391.743 429.866 390.413 430.33 389.175C427.142 386.611 423.03 383.263 422.23 383.805C420.03 385.299 422.171 387.315 424.755 389.494C424.369 389.668 424.033 389.938 423.78 390.278C423.527 390.618 423.364 391.016 423.307 391.436C423.251 391.856 423.301 392.284 423.455 392.679C423.609 393.074 423.86 393.423 424.186 393.694C423.848 394.02 423.582 394.412 423.404 394.846C423.226 395.28 423.141 395.747 423.153 396.216C423.166 396.685 423.276 397.146 423.476 397.571C423.677 397.995 423.963 398.373 424.318 398.68C422.508 400.78 423.418 402.77 426.469 404.774C429.715 406.909 434.077 411.304 442.746 417.257C454.099 425.057 455.487 427.71 463.09 434.035C470.561 440.255 482.69 451.329 496.4 451.329C499.937 451.329 504.1 444.512 504.864 439.341C502.573 437.85 501.319 437.78 499.439 436.807C497.918 442.639 494.5 447.699 487.594 444.88Z" fill="#E68969"/>
<path fill-rule="evenodd" clip-rule="evenodd" d="M435.331 381.256C433.825 383.506 434.414 386.307 437.241 388.738C437.521 391.304 438.599 393.717 440.323 395.638L445.923 398.043L441.156 388.143C438.94 386.094 436.984 383.781 435.331 381.256Z" fill="#FFA578"/>
<path d="M425.265 411.199C425.185 412.486 425.618 413.751 426.469 414.719C427.321 415.687 428.522 416.277 429.808 416.361C430.448 416.403 431.089 416.318 431.696 416.112C432.303 415.905 432.863 415.581 433.344 415.157C433.825 414.734 434.218 414.22 434.5 413.644C434.782 413.068 434.948 412.443 434.988 411.803L439.919 332.438L430.21 331.802L425.265 411.199Z" fill="#181F79"/>
<path d="M442.2 288.08L420.471 286.721L417.354 335.986L439.115 337.352C442.351 337.554 445.595 337.117 448.662 336.066C451.729 335.015 454.558 333.369 456.989 331.224C459.421 329.079 461.405 326.476 462.83 323.564C464.255 320.652 465.093 317.488 465.295 314.252C465.702 307.719 463.497 301.292 459.166 296.384C454.835 291.476 448.733 288.489 442.2 288.08Z" fill="#EB4201"/>
<path d="M335.449 361.504L417.349 335.986L420.449 286.72L342.308 251.089L335.449 361.504Z" fill="#F5C825"/>
<path d="M339.419 250.586C324.601 249.473 310.74 273.534 308.49 304.317C306.211 335.067 316.38 360.895 331.201 362.005C343.98 362.934 356.039 345.174 360.571 320.544C361.317 316.476 361.838 312.37 362.13 308.244C362.431 304.141 362.511 300.025 362.37 295.913C361.529 270.865 352.2 251.515 339.419 250.586Z" fill="#EB4201"/>
<path d="M345.061 264.238C333.876 263.401 323.414 281.565 321.715 304.8C319.992 328.012 327.671 347.512 338.856 348.35C348.504 349.05 357.609 335.644 361.028 317.05C361.593 313.98 361.986 310.88 362.206 307.766C362.434 304.668 362.495 301.56 362.388 298.455C361.752 279.549 354.709 264.942 345.061 264.238Z" fill="#181F79"/>
<path d="M358.169 293.664C353.399 293.336 349.019 299.395 348.451 307.255C347.883 315.115 351.299 321.745 356.101 322.106C357.738 322.19 359.343 321.629 360.571 320.544C361.317 316.476 361.838 312.369 362.13 308.244C362.431 304.141 362.511 300.024 362.37 295.913C361.321 294.639 359.811 293.83 358.169 293.664Z" fill="#F7F7F7"/>
<path d="M421.172 286.735C413.059 286.141 405.672 296.682 404.672 310.284C403.672 323.886 409.438 335.401 417.551 335.998C425.664 336.595 433.051 326.049 434.051 312.449C435.051 298.849 429.287 287.333 421.172 286.735Z" fill="#F5C825"/>
<path fill-rule="evenodd" clip-rule="evenodd" d="M424.512 384.899C423.312 383.999 422.182 384.055 421.822 384.711C421.471 385.347 421.327 386.17 422.774 387.336C425.076 389.213 427.522 390.906 430.09 392.399C432.24 393.682 433.799 392.68 431.109 390.287C429.01 388.372 426.808 386.573 424.512 384.899Z" fill="#FFA578"/>
<path fill-rule="evenodd" clip-rule="evenodd" d="M435.041 396.845C432.029 394.522 429.015 392.732 426.015 390.435C424.822 389.524 424.215 390.048 423.87 390.772C423.533 391.478 423.413 392.351 424.942 393.411C427.892 395.459 430.982 397.298 434.188 398.916C436.444 400.015 437.889 399.039 435.041 396.845Z" fill="#FFA578"/>
<path fill-rule="evenodd" clip-rule="evenodd" d="M433.975 400.076C431.182 398.119 428.552 396.789 425.775 394.853C424.675 394.082 423.997 394.777 423.651 395.494C423.314 396.186 423.182 397.024 424.601 397.908C427.349 399.615 430.225 401.11 433.201 402.379C435.3 403.238 436.611 401.931 433.975 400.076Z" fill="#FFA578"/>
<path fill-rule="evenodd" clip-rule="evenodd" d="M433.037 404.248C430.248 402.288 428.801 401.407 426.023 399.473C424.923 398.702 424.33 399.25 423.984 399.968C423.65 400.662 423.515 401.5 424.936 402.379C427.227 403.896 429.652 405.202 432.181 406.279C434.285 407.143 435.674 406.099 433.037 404.248Z" fill="#FFA578"/>
<path fill-rule="evenodd" clip-rule="evenodd" d="M531.782 257.008C496.982 264.708 505.418 296.084 507.061 304.363C510.284 320.606 525.07 330.212 544.131 330.212C569.27 330.212 583.318 292.762 569.077 271.082C558.252 254.608 541.632 254.828 531.782 257.008Z" fill="#CECDD3"/>
<path fill-rule="evenodd" clip-rule="evenodd" d="M531.782 257.008C531.568 257.055 531.375 257.108 531.164 257.166C531.603 257.245 532.046 257.313 532.479 257.412C535.385 258.151 538.103 259.495 540.454 261.356C546.837 264.339 551.83 269.661 554.4 276.221C557.056 282.333 557.605 289.155 555.959 295.613C554.201 302.72 548.688 308.834 542.409 312.353C535.926 315.988 527.573 318.045 520.284 315.628C515.927 314.22 511.952 311.831 508.665 308.644C508.434 308.424 508.226 308.125 508 307.885C512.547 321.977 526.5 330.212 544.135 330.212C569.274 330.212 583.322 292.762 569.081 271.082C558.252 254.608 541.632 254.828 531.782 257.008Z" fill="#5342F2"/>
<path fill-rule="evenodd" clip-rule="evenodd" d="M561.782 751.862C560.692 748.715 558.482 746.155 556.389 738.862C549.967 716.538 556.184 698.638 550.313 669.353C549.161 663.613 546.161 658.501 546.802 651.839C547.031 645.575 547.972 640.712 547.638 635.89C547.318 631.29 545.745 626.723 545.306 621.18C543.106 593.28 543.794 559.363 544.837 532.595L500.137 510.054C500.981 537.754 511.475 606.546 512.05 609.523C517.004 635.169 515.176 639.297 517.959 661.15C520.891 684.2 535.449 720.405 541.906 744.657C544.141 753.042 546.55 791.272 546.106 797.995C545.828 802.24 542.931 809.116 548.878 809.116C553.855 809.116 567.188 803.516 568.902 797.743C570.716 791.643 565.402 780.605 563.412 769.703C561.879 761.283 563.256 756.099 561.782 751.862Z" fill="#E68969"/>
<path fill-rule="evenodd" clip-rule="evenodd" d="M531.727 669.655C524.596 646.99 519.352 623.855 524.886 600.49C530.725 575.834 526.169 550.39 530.686 525.461L500.141 510.054C500.985 537.76 511.479 606.549 512.054 609.526C517.008 635.172 515.18 639.3 517.963 661.153C520.892 684.203 535.45 720.408 541.91 744.66C544.145 753.045 546.554 791.275 546.11 797.998C545.832 802.243 542.935 809.119 548.882 809.119C551.382 809.119 555.975 807.707 560.152 805.577C559.423 785.023 548.647 764.307 547.681 743.688C546.422 716.89 539.71 695.02 531.727 669.655Z" fill="#FFA578"/>
<path fill-rule="evenodd" clip-rule="evenodd" d="M565.28 778.599C564.492 783.084 563.38 788.276 560.508 792.204C556.113 798.219 547.037 795.761 546.073 791.188C546.173 794.308 546.193 796.725 546.108 797.996C545.83 802.241 542.933 809.117 548.88 809.117C553.857 809.117 567.19 803.517 568.904 797.744C570.252 793.209 567.662 785.944 565.427 778.033C565.386 778.229 565.315 778.408 565.28 778.599Z" fill="#EB4201"/>
<path fill-rule="evenodd" clip-rule="evenodd" d="M565.28 778.599C564.492 783.084 563.38 788.276 560.508 792.204C560.107 792.742 559.636 793.223 559.108 793.637C559.095 794.09 559.028 794.539 558.908 794.976C556.427 803.75 547.351 806.252 545.232 805.889C545.396 807.746 546.255 809.117 548.88 809.117C553.857 809.117 567.19 803.517 568.904 797.744C570.252 793.209 567.662 785.944 565.427 778.033C565.386 778.229 565.315 778.408 565.28 778.599Z" fill="#181F79"/>
<path fill-rule="evenodd" clip-rule="evenodd" d="M559.072 346.317C545.73 349.979 548.722 335.193 546.987 322.258L528.858 328.642C531.108 340.797 532.831 349.422 523.014 353.231C516.547 355.597 509.955 357.606 503.267 359.248C494.531 361.325 490.954 417.537 489.243 434.102L504.671 440.257C508.107 428.357 513.92 414.883 513.92 400.443L572.607 392.723L567.773 372.833L587.552 365.799C582.577 344.928 574.977 341.954 559.072 346.317Z" fill="#FFA578"/>
<path fill-rule="evenodd" clip-rule="evenodd" d="M563.736 361.507C563.736 361.507 589.383 407.623 597.961 416.553L608.487 404.571C603.981 396.001 594.052 367.114 582.598 351.408L563.736 361.507Z" fill="#FFA578"/>
<path fill-rule="evenodd" clip-rule="evenodd" d="M589.477 382.276C590.522 379.024 593.648 371.515 592.263 367.944C588.618 358.551 575.763 363.912 573.196 357.28C573.102 357.033 573.073 356.796 572.996 356.55L563.738 361.507C563.738 361.507 589.385 407.623 597.963 416.553L603.819 409.885C602.334 409.191 596.111 408.731 594.919 406.926C589.1 398.137 588.94 383.94 589.477 382.276Z" fill="#E68969"/>
<path fill-rule="evenodd" clip-rule="evenodd" d="M656.291 345.036C656.538 344.637 656.699 344.19 656.763 343.725C656.828 343.26 656.795 342.786 656.666 342.334C656.537 341.883 656.316 341.463 656.016 341.101C655.716 340.74 655.343 340.445 654.923 340.236C655.153 339.88 655.288 339.471 655.316 339.049C655.345 338.626 655.265 338.203 655.085 337.819C654.905 337.436 654.631 337.104 654.288 336.856C653.944 336.607 653.544 336.45 653.123 336.399C654.937 333.545 656.378 330.979 653.823 330.214C652.572 329.836 647.63 338.133 645.637 340.746C642.268 345.17 641.401 338.918 639.087 342.961C636.439 347.342 635.367 352.495 636.046 357.568C636.685 362.868 614.51 382.354 600.339 394.781C595.478 399.041 594.547 403.008 595.001 409.57C595.109 411.17 596.852 418.351 601.458 416.73C623.791 408.873 635.77 379.119 644.266 368.279C650.756 360 653.603 354.504 656.066 351.492C658.368 348.672 658.649 346.504 656.291 345.036Z" fill="#FFA578"/>
<path fill-rule="evenodd" clip-rule="evenodd" d="M656.291 345.036C656.538 344.637 656.699 344.19 656.763 343.725C656.828 343.259 656.795 342.786 656.666 342.334C656.537 341.882 656.316 341.463 656.016 341.101C655.716 340.74 655.343 340.445 654.923 340.236C655.153 339.88 655.288 339.471 655.316 339.049C655.345 338.626 655.265 338.203 655.085 337.819C654.906 337.435 654.631 337.104 654.288 336.856C653.944 336.607 653.544 336.45 653.123 336.399C654.937 333.545 656.378 330.979 653.823 330.211C652.572 329.836 647.63 338.133 645.637 340.746C645.146 341.603 644.75 342.51 644.457 343.453C643.41 346.144 643.074 349.059 643.481 351.917C644.108 356.543 644.592 361.705 642.819 364.117C637.279 371.635 627.553 376.517 621.919 383.951C616.319 391.334 611.1 398.541 603.907 404.483C602.693 405.548 601.251 406.322 599.693 406.745C598.134 407.168 596.499 407.23 594.913 406.926C594.913 407.764 594.939 408.637 595.004 409.574C595.112 411.174 596.855 418.355 601.461 416.734C623.794 408.877 635.773 379.123 644.269 368.283C646.889 364.941 647.047 362.169 648.693 359.714C651.125 356.09 654.593 353.289 656.064 351.496C658.371 348.672 658.649 346.504 656.291 345.036Z" fill="#E68969"/>
<path fill-rule="evenodd" clip-rule="evenodd" d="M641.074 332.099C640.253 335.003 639.08 337.795 637.579 340.413L635.994 351.288L641.394 346.838C642.218 345.019 642.127 342.655 641.488 339.807C643.465 336.64 643.186 333.789 641.074 332.099Z" fill="#FFA578"/>
<path fill-rule="evenodd" clip-rule="evenodd" d="M559.072 346.317C545.73 349.979 548.722 335.193 546.987 322.258L528.858 328.642C529.298 331.018 529.714 333.25 530.03 335.348C534.93 342.719 544.655 354.121 553.23 353.07C557.861 352.501 562.086 347.17 567.43 346.522C571.236 346.094 575.09 346.455 578.751 347.582C574.078 343.759 567.841 343.911 559.072 346.317Z" fill="#E68969"/>
<path fill-rule="evenodd" clip-rule="evenodd" d="M506.033 402.244C505.833 405.151 505.633 408.121 505.552 411.209C505.313 420.168 500.883 430.783 498.752 439.009L504.673 440.257C507.427 430.727 513.373 419.996 513.764 408.868C511.482 408.045 506.537 403.088 506.033 402.244Z" fill="#E68969"/>
<path fill-rule="evenodd" clip-rule="evenodd" d="M548.106 272.629C544.113 270.613 538.963 269.905 532.394 271.059C516.571 273.859 513.026 287.483 514.069 300.994C514.669 308.606 515.153 315.215 518.698 321.186C520.415 324.022 530.865 336.227 538.292 336.227C546.392 336.186 556.131 322.566 557.552 318.795C559.152 314.541 559.79 309.28 560.052 301.478C560.09 300.918 560.09 300.397 560.09 299.878C560.2 288.08 557.065 277.071 548.106 272.629Z" fill="#FFA578"/>
<path fill-rule="evenodd" clip-rule="evenodd" d="M548.106 272.629C542.66 271.029 535.679 271.1 526.834 274.047C526.834 274.047 534.111 298.604 560.089 299.875C560.2 288.08 557.065 277.071 548.106 272.629Z" fill="#E68969"/>
<path fill-rule="evenodd" clip-rule="evenodd" d="M545.821 493.099C531.589 522.425 534.721 540.999 535.16 580.169C535.453 606.091 535.23 613.157 533.818 631.002C533.379 636.548 531.809 641.115 531.489 645.712C531.155 650.537 532.089 655.398 532.324 661.661C532.963 668.323 529.963 673.436 528.811 679.175C522.94 708.46 529.444 729.575 523.028 751.896C520.928 759.185 518.435 758.534 517.342 761.681C515.871 765.923 517.242 771.103 515.713 779.526C513.724 790.426 508.286 801.504 510.22 807.566C511.459 811.456 520.769 822.22 525.747 822.22C531.51 822.22 531.017 812.066 531.504 807.841C531.984 803.704 532.497 773.016 532.69 770.611C533.396 761.742 557.015 696.671 559.951 673.62C562.731 651.771 561.293 641.62 566.251 615.976C572.884 581.64 578.064 550.21 578.986 519.876L575.486 493.204L545.821 493.099Z" fill="#FFA578"/>
<path fill-rule="evenodd" clip-rule="evenodd" d="M526.919 807.599C516.656 807.599 513.94 789.599 513.598 788.152C511.353 795.952 508.798 803.113 510.22 807.564C511.459 811.454 520.769 822.215 525.747 822.215C531.51 822.215 531.017 812.064 531.507 807.839C531.58 807.194 531.656 805.853 531.729 804.13C530.361 805.363 528.955 807.599 526.919 807.599Z" fill="#EB4201"/>
<path fill-rule="evenodd" clip-rule="evenodd" d="M526.919 807.599C525.781 807.597 524.657 807.355 523.619 806.89C523.753 808.088 523.724 809.299 523.534 810.49C523.074 813.514 519.315 815.102 516.649 814.399C515.718 814.144 514.812 813.805 513.943 813.385C517.435 817.648 522.509 822.218 525.752 822.218C531.515 822.218 531.022 812.067 531.512 807.842C531.585 807.197 531.661 805.856 531.734 804.133C530.361 805.363 528.955 807.599 526.919 807.599Z" fill="#181F79"/>
<path fill-rule="evenodd" clip-rule="evenodd" d="M589.248 461.91C580.356 464.193 526.623 472.721 506.988 461.383C505.503 469.983 490.008 481.932 490.008 509.228C490.008 549.039 506.842 628.92 506.842 628.92C506.842 628.92 544.397 639.329 570.97 630.467C581.719 578.738 596.522 524.808 592.119 485.699C591.987 484.525 589.441 463.164 589.248 461.91Z" fill="#5CCFFE"/>
<path fill-rule="evenodd" clip-rule="evenodd" d="M589.313 462.394C589.166 462.555 589.072 462.731 588.913 462.894C570.184 482.075 540.702 482.942 545.813 493.105C549.46 500.324 569 513.789 573.914 518.313C584.496 528.048 554.534 540.836 556.591 563.541C557.546 574.088 552.167 593.169 549.343 603.376C545.007 619.059 522.762 617.905 512.733 630.321C524.338 632.821 550.808 637.191 570.97 630.467C581.719 578.738 596.522 524.808 592.119 485.699C592 484.599 589.761 465.821 589.313 462.394Z" fill="#4497B7"/>
<path fill-rule="evenodd" clip-rule="evenodd" d="M592.16 351.833C582.36 341.105 561.252 344.02 561.252 344.02C553.368 351.151 537.911 362.175 537.911 362.175L515.241 355.088C515.241 355.088 492.662 355.888 489.931 377.102C489.017 384.209 503.593 383.283 503.593 393.455C503.593 400.147 507.14 405.994 512.027 409.988C513.595 419.858 514.182 429.859 513.782 439.844C513.017 453.299 504.935 452.213 506.2 459.719C508.362 472.499 583.778 469.856 590.1 462.362C596.788 454.431 590.217 407.07 587.334 382.226C585.621 367.483 597.727 357.933 592.16 351.833Z" fill="#FE8046"/>
<path fill-rule="evenodd" clip-rule="evenodd" d="M592.16 351.833C582.36 341.105 561.252 344.02 561.252 344.02C553.368 351.151 537.911 362.175 537.911 362.175L515.241 355.088C510.745 355.437 506.368 356.699 502.377 358.799C504.196 359.487 507.99 362.373 511.567 362.684C518.067 363.246 525.316 368.136 524.631 375.744C524.706 377.088 525.218 378.37 526.09 379.395C533.874 384.161 528.69 401.757 519.498 406.155C513.231 409.149 543.738 428.155 543.738 446.613C543.738 454.448 562.301 446.672 568.638 441.838C574.371 437.461 578.203 441.58 572.552 445.893C562.034 453.92 551.578 462.138 532.561 462.393C527.007 462.67 521.538 463.865 516.375 465.929C537.641 471.129 585.138 468.243 590.098 462.361C596.786 454.43 590.215 407.069 587.332 382.225C585.621 367.483 597.727 357.933 592.16 351.833ZM579.536 389.453C577.031 393.159 574.936 398.353 576.059 402.868C577.796 409.873 572.49 412.34 566.459 408.4C562.993 406.135 549.402 414.2 541.489 412.867C534.389 411.667 539.26 408.218 541.762 408.555C549.818 409.645 566.21 391.091 569.556 383.181C571.313 379.027 578.113 377.518 580.498 380.236C582.647 381.725 581.438 386.647 579.536 389.453Z" fill="#EB4201"/>
<path fill-rule="evenodd" clip-rule="evenodd" d="M537.721 316.533C536.291 316.432 534.875 316.871 533.754 317.764C533.171 318.555 534.767 318.991 535.567 319.047C536.018 319.088 536.465 319.161 536.906 319.264C537.586 319.422 538.292 319.422 538.972 319.264C539.412 319.161 539.859 319.088 540.31 319.047C541.11 318.991 542.516 318.666 542.127 317.764C541.963 317.389 539.871 316.522 537.721 316.533Z" fill="#E68969"/>
<path fill-rule="evenodd" clip-rule="evenodd" d="M652.479 331.557C650.895 333.913 649.439 336.353 648.117 338.866C646.406 342.033 648.217 342.446 649.796 340.504C651.7 338.227 653.422 335.803 654.946 333.256C655.91 331.662 655.494 330.939 654.946 330.461C654.398 329.983 653.3 330.299 652.479 331.557Z" fill="#FFA578"/>
<path fill-rule="evenodd" clip-rule="evenodd" d="M652.96 337.27C650.924 340.451 648.7 343.164 646.66 346.37C644.732 349.408 646.426 349.833 648.169 348.028C650.631 345.413 652.907 342.629 654.98 339.696C656.053 338.179 655.642 337.396 655.089 336.849C654.518 336.291 653.768 336.007 652.96 337.27Z" fill="#FFA578"/>
<path fill-rule="evenodd" clip-rule="evenodd" d="M654.694 341.339C652.743 344.108 650.727 346.258 648.77 349.05C646.925 351.693 648.601 352.475 650.285 350.95C652.652 348.742 654.845 346.355 656.845 343.811C657.876 342.498 657.463 341.754 656.912 341.218C656.785 341.035 656.613 340.888 656.413 340.791C656.213 340.693 655.992 340.648 655.769 340.66C655.547 340.673 655.332 340.741 655.144 340.86C654.955 340.979 654.801 341.144 654.694 341.339Z" fill="#FFA578"/>
<path fill-rule="evenodd" clip-rule="evenodd" d="M656.039 345.766C654.088 348.534 653.027 349.856 651.076 352.651C649.23 355.293 650.891 355.797 652.576 354.271C654.584 352.394 656.417 350.339 658.052 348.13C659.086 346.818 658.673 346.076 658.122 345.537C657.551 344.981 656.813 344.667 656.039 345.766Z" fill="#FFA578"/>
<path fill-rule="evenodd" clip-rule="evenodd" d="M524.493 268.399C524.493 268.399 534.802 299.07 572.836 295.161C572.836 295.158 568.327 255.499 524.493 268.399Z" fill="#CECDD3"/>
<path d="M360.912 616.424C381.475 613.07 395.426 593.681 392.072 573.118C388.717 552.555 369.329 538.604 348.766 541.959C328.203 545.313 314.252 564.702 317.606 585.265C320.961 605.828 340.349 619.778 360.912 616.424Z" fill="#F5C825"/>
<path d="M426.357 127.58C426.357 122.735 424.433 118.089 421.007 114.663C417.582 111.237 412.936 109.312 408.091 109.311H302.584C297.739 109.312 293.093 111.237 289.667 114.663C286.242 118.089 284.317 122.735 284.317 127.58V170.814C284.318 175.659 286.242 180.304 289.668 183.73C293.094 187.155 297.74 189.08 302.584 189.08H408.091C412.935 189.08 417.581 187.155 421.006 183.729C424.432 180.304 426.356 175.658 426.357 170.814V156.385L453 130.674L426.357 134.599V127.58Z" fill="white"/>
<path d="M411.22 160.961H351.501V167.72H411.22V160.961Z" fill="#5CCFFE"/>
<path d="M411.22 150.866H351.501V157.625H411.22V150.866Z" fill="#5CCFFE"/>
<path d="M411.22 140.77H351.501V147.526H411.22V140.77Z" fill="#5CCFFE"/>
<path d="M393.146 130.674H351.501V137.43H393.146V130.674Z" fill="#5CCFFE"/>
<path d="M332.587 122.752H310.359C304.007 122.752 298.857 127.902 298.857 134.254V164.137C298.857 170.489 304.007 175.639 310.359 175.639H332.587C338.939 175.639 344.089 170.489 344.089 164.137V134.254C344.089 127.902 338.939 122.752 332.587 122.752Z" fill="#FE8046"/>
</g>
<defs>
<linearGradient id="paint0_linear_3_7426" x1="-21.6" y1="95.2903" x2="671.839" y2="1036.14" gradientUnits="userSpaceOnUse">
<stop stop-color="#F5C825"/>
<stop offset="1" stop-color="#EB4201"/>
</linearGradient>
<linearGradient id="paint1_linear_3_7426" x1="41.04" y1="21.9164" x2="538.409" y2="1007.2" gradientUnits="userSpaceOnUse">
<stop stop-color="#EB4201"/>
<stop offset="1" stop-color="#F5C825"/>
</linearGradient>
<clipPath id="clip0_3_7426">
<rect width="1080" height="1080" fill="white"/>
</clipPath>
</defs>
</svg>
